<?xml version="1.0" standalone="no"?><svg xmlns="http://www.w3.org/2000/svg" viewBox="0 0 1330 320"><path fill="grey" fill-opacity=".6" d="M0,192L15,208C30,224,60,256,90,266.7C120,277,150,267,180,266.7C210,267,240,277,270,245.3C300,213,330,139,360,90.7C390,43,420,21,450,53.3C480,85,510,171,540,202.7C570,235,600,213,630,197.3C660,181,690,171,720,160C750,149,780,139,810,154.7C840,171,870,213,900,213.3C930,213,960,171,990,144C1020,117,1050,107,1080,138.7C1110,171,1140,245,1170,229.3C1200,213,1230,107,1260,101.3C1290,96,1320,192,1350,218.7C1380,245,1410,203,1425,181.3L1440,160L1440,320L1425,320C1410,320,1380,320,1350,320C1320,320,1290,320,1260,320C1230,320,1200,320,1170,320C1140,320,1110,320,1080,320C1050,320,1020,320,990,320C960,320,930,320,900,320C870,320,840,320,810,320C780,320,750,320,720,320C690,320,660,320,630,320C600,320,570,320,540,320C510,320,480,320,450,320C420,320,390,320,360,320C330,320,300,320,270,320C240,320,210,320,180,320C150,320,120,320,90,320C60,320,30,320,15,320L0,320Z"></path></svg>